<mxfile host="app.diagrams.net" modified="2024-05-18T11:41:18.917Z" agent="Mozilla/5.0 (Windows NT 10.0; Win64; x64) AppleWebKit/537.36 (KHTML, like Gecko) Chrome/123.0.0.0 Safari/537.36 Edg/123.0.0.0" etag="3FOpanuhNA-u5r2bCXL2" version="24.4.4" type="device">
  <diagram id="R2lEEEUBdFMjLlhIrx00" name="Page-1">
    <mxGraphModel dx="1241" dy="2071" grid="1" gridSize="10" guides="1" tooltips="1" connect="1" arrows="1" fold="1" page="1" pageScale="1" pageWidth="850" pageHeight="1100" math="0" shadow="0" extFonts="Permanent Marker^https://fonts.googleapis.com/css?family=Permanent+Marker">
      <root>
        <mxCell id="0" />
        <mxCell id="1" parent="0" />
        <mxCell id="C1nQSUP3_iVQXWu07cKW-3" style="edgeStyle=none;rounded=0;orthogonalLoop=1;jettySize=auto;html=1;exitX=0;exitY=0;exitDx=0;exitDy=0;entryX=1;entryY=1;entryDx=0;entryDy=0;strokeColor=default;align=center;verticalAlign=middle;fontFamily=Helvetica;fontSize=11;fontColor=default;labelBackgroundColor=default;endArrow=none;" edge="1" parent="1" source="w-bUhG9tgI94XME9KLcf-1" target="C1nQSUP3_iVQXWu07cKW-1">
          <mxGeometry relative="1" as="geometry" />
        </mxCell>
        <mxCell id="w-bUhG9tgI94XME9KLcf-1" value="&lt;font style=&quot;font-size: 18px;&quot;&gt;用户&lt;/font&gt;" style="rounded=0;whiteSpace=wrap;html=1;" parent="1" vertex="1">
          <mxGeometry x="921.75" y="-800" width="80" height="60" as="geometry" />
        </mxCell>
        <mxCell id="w-bUhG9tgI94XME9KLcf-25" value="" style="edgeStyle=none;rounded=0;orthogonalLoop=1;jettySize=auto;html=1;strokeColor=default;align=center;verticalAlign=middle;fontFamily=Helvetica;fontSize=11;fontColor=default;labelBackgroundColor=default;endArrow=none;" parent="1" source="w-bUhG9tgI94XME9KLcf-4" target="w-bUhG9tgI94XME9KLcf-24" edge="1">
          <mxGeometry relative="1" as="geometry" />
        </mxCell>
        <mxCell id="w-bUhG9tgI94XME9KLcf-35" value="&lt;font style=&quot;font-size: 18px;&quot;&gt;N&lt;/font&gt;" style="edgeLabel;html=1;align=center;verticalAlign=middle;resizable=0;points=[];fontFamily=Helvetica;fontSize=11;fontColor=default;labelBackgroundColor=default;" parent="w-bUhG9tgI94XME9KLcf-25" vertex="1" connectable="0">
          <mxGeometry x="0.0199" relative="1" as="geometry">
            <mxPoint as="offset" />
          </mxGeometry>
        </mxCell>
        <mxCell id="w-bUhG9tgI94XME9KLcf-127" style="edgeStyle=none;rounded=0;orthogonalLoop=1;jettySize=auto;html=1;exitX=0.25;exitY=1;exitDx=0;exitDy=0;entryX=1;entryY=0;entryDx=0;entryDy=0;strokeColor=default;align=center;verticalAlign=middle;fontFamily=Helvetica;fontSize=11;fontColor=default;labelBackgroundColor=default;endArrow=none;" parent="1" source="w-bUhG9tgI94XME9KLcf-4" target="w-bUhG9tgI94XME9KLcf-126" edge="1">
          <mxGeometry relative="1" as="geometry" />
        </mxCell>
        <mxCell id="W53H7S4lqF-D5ezC9vgU-52" style="edgeStyle=none;rounded=0;orthogonalLoop=1;jettySize=auto;html=1;exitX=0.75;exitY=1;exitDx=0;exitDy=0;entryX=0;entryY=0;entryDx=0;entryDy=0;strokeColor=default;align=center;verticalAlign=middle;fontFamily=Helvetica;fontSize=11;fontColor=default;labelBackgroundColor=default;endArrow=none;" parent="1" source="w-bUhG9tgI94XME9KLcf-4" target="W53H7S4lqF-D5ezC9vgU-51" edge="1">
          <mxGeometry relative="1" as="geometry" />
        </mxCell>
        <mxCell id="w-bUhG9tgI94XME9KLcf-4" value="&lt;font style=&quot;font-size: 18px;&quot;&gt;文件夹&lt;/font&gt;" style="rounded=0;whiteSpace=wrap;html=1;" parent="1" vertex="1">
          <mxGeometry x="1295.25" y="-505" width="89.5" height="60" as="geometry" />
        </mxCell>
        <mxCell id="w-bUhG9tgI94XME9KLcf-26" value="" style="edgeStyle=none;rounded=0;orthogonalLoop=1;jettySize=auto;html=1;strokeColor=default;align=center;verticalAlign=middle;fontFamily=Helvetica;fontSize=11;fontColor=default;labelBackgroundColor=default;endArrow=none;" parent="1" source="w-bUhG9tgI94XME9KLcf-5" target="w-bUhG9tgI94XME9KLcf-24" edge="1">
          <mxGeometry relative="1" as="geometry" />
        </mxCell>
        <mxCell id="w-bUhG9tgI94XME9KLcf-30" value="&lt;font style=&quot;font-size: 18px;&quot;&gt;M&lt;/font&gt;" style="edgeLabel;html=1;align=center;verticalAlign=middle;resizable=0;points=[];fontFamily=Helvetica;fontSize=11;fontColor=default;labelBackgroundColor=default;" parent="w-bUhG9tgI94XME9KLcf-26" vertex="1" connectable="0">
          <mxGeometry x="0.0224" y="-3" relative="1" as="geometry">
            <mxPoint as="offset" />
          </mxGeometry>
        </mxCell>
        <mxCell id="w-bUhG9tgI94XME9KLcf-48" style="edgeStyle=none;rounded=0;orthogonalLoop=1;jettySize=auto;html=1;exitX=0;exitY=0.5;exitDx=0;exitDy=0;entryX=1;entryY=0.5;entryDx=0;entryDy=0;strokeColor=default;align=center;verticalAlign=middle;fontFamily=Helvetica;fontSize=11;fontColor=default;labelBackgroundColor=default;endArrow=none;" parent="1" source="w-bUhG9tgI94XME9KLcf-5" target="w-bUhG9tgI94XME9KLcf-47" edge="1">
          <mxGeometry relative="1" as="geometry">
            <Array as="points" />
          </mxGeometry>
        </mxCell>
        <mxCell id="w-bUhG9tgI94XME9KLcf-53" value="&lt;font style=&quot;font-size: 18px;&quot;&gt;N&lt;/font&gt;" style="edgeLabel;html=1;align=center;verticalAlign=middle;resizable=0;points=[];fontFamily=Helvetica;fontSize=11;fontColor=default;labelBackgroundColor=default;" parent="w-bUhG9tgI94XME9KLcf-48" vertex="1" connectable="0">
          <mxGeometry x="0.0383" relative="1" as="geometry">
            <mxPoint as="offset" />
          </mxGeometry>
        </mxCell>
        <mxCell id="w-bUhG9tgI94XME9KLcf-5" value="&lt;font style=&quot;font-size: 18px;&quot;&gt;文件&lt;/font&gt;" style="rounded=0;whiteSpace=wrap;html=1;" parent="1" vertex="1">
          <mxGeometry x="495" y="-500" width="80" height="50" as="geometry" />
        </mxCell>
        <mxCell id="w-bUhG9tgI94XME9KLcf-19" value="&lt;font style=&quot;font-size: 18px;&quot;&gt;N&lt;/font&gt;" style="edgeStyle=none;rounded=0;orthogonalLoop=1;jettySize=auto;html=1;strokeColor=default;align=center;verticalAlign=middle;fontFamily=Helvetica;fontSize=11;fontColor=default;labelBackgroundColor=default;endArrow=none;" parent="1" source="w-bUhG9tgI94XME9KLcf-12" target="w-bUhG9tgI94XME9KLcf-4" edge="1">
          <mxGeometry relative="1" as="geometry" />
        </mxCell>
        <mxCell id="w-bUhG9tgI94XME9KLcf-12" value="&lt;font style=&quot;font-size: 18px;&quot;&gt;管理&lt;/font&gt;" style="rhombus;whiteSpace=wrap;html=1;" parent="1" vertex="1">
          <mxGeometry x="1110" y="-660" width="130" height="70" as="geometry" />
        </mxCell>
        <mxCell id="w-bUhG9tgI94XME9KLcf-15" value="" style="endArrow=none;html=1;rounded=0;entryX=0.5;entryY=1;entryDx=0;entryDy=0;exitX=0.359;exitY=0.166;exitDx=0;exitDy=0;exitPerimeter=0;" parent="1" source="w-bUhG9tgI94XME9KLcf-12" target="w-bUhG9tgI94XME9KLcf-1" edge="1">
          <mxGeometry width="50" height="50" relative="1" as="geometry">
            <mxPoint x="1070" y="-630" as="sourcePoint" />
            <mxPoint x="845" y="-640" as="targetPoint" />
          </mxGeometry>
        </mxCell>
        <mxCell id="w-bUhG9tgI94XME9KLcf-20" value="&lt;font style=&quot;font-size: 18px;&quot;&gt;1&lt;/font&gt;" style="edgeLabel;html=1;align=center;verticalAlign=middle;resizable=0;points=[];fontFamily=Helvetica;fontSize=11;fontColor=default;labelBackgroundColor=default;" parent="w-bUhG9tgI94XME9KLcf-15" vertex="1" connectable="0">
          <mxGeometry x="0.0742" y="-1" relative="1" as="geometry">
            <mxPoint as="offset" />
          </mxGeometry>
        </mxCell>
        <mxCell id="w-bUhG9tgI94XME9KLcf-24" value="&lt;font style=&quot;font-size: 18px;&quot;&gt;收纳&lt;/font&gt;" style="rhombus;whiteSpace=wrap;html=1;rotation=0;" parent="1" vertex="1">
          <mxGeometry x="896.75" y="-370" width="130" height="70" as="geometry" />
        </mxCell>
        <mxCell id="w-bUhG9tgI94XME9KLcf-39" style="edgeStyle=none;rounded=0;orthogonalLoop=1;jettySize=auto;html=1;entryX=1;entryY=0;entryDx=0;entryDy=0;strokeColor=default;align=center;verticalAlign=middle;fontFamily=Helvetica;fontSize=11;fontColor=default;labelBackgroundColor=default;endArrow=none;exitX=0.391;exitY=0.845;exitDx=0;exitDy=0;exitPerimeter=0;" parent="1" source="w-bUhG9tgI94XME9KLcf-38" target="w-bUhG9tgI94XME9KLcf-5" edge="1">
          <mxGeometry relative="1" as="geometry">
            <mxPoint x="695" y="-580" as="sourcePoint" />
          </mxGeometry>
        </mxCell>
        <mxCell id="w-bUhG9tgI94XME9KLcf-91" value="&lt;font style=&quot;font-size: 18px;&quot;&gt;N&lt;/font&gt;" style="edgeLabel;html=1;align=center;verticalAlign=middle;resizable=0;points=[];fontFamily=Helvetica;fontSize=11;fontColor=default;labelBackgroundColor=default;" parent="w-bUhG9tgI94XME9KLcf-39" vertex="1" connectable="0">
          <mxGeometry x="0.1393" y="-1" relative="1" as="geometry">
            <mxPoint x="-1" as="offset" />
          </mxGeometry>
        </mxCell>
        <mxCell id="w-bUhG9tgI94XME9KLcf-40" style="edgeStyle=none;rounded=0;orthogonalLoop=1;jettySize=auto;html=1;exitX=0.677;exitY=0.196;exitDx=0;exitDy=0;strokeColor=default;align=center;verticalAlign=middle;fontFamily=Helvetica;fontSize=11;fontColor=default;labelBackgroundColor=default;endArrow=none;exitPerimeter=0;" parent="1" source="w-bUhG9tgI94XME9KLcf-38" target="w-bUhG9tgI94XME9KLcf-1" edge="1">
          <mxGeometry relative="1" as="geometry" />
        </mxCell>
        <mxCell id="w-bUhG9tgI94XME9KLcf-41" value="&lt;font style=&quot;font-size: 18px;&quot;&gt;1&lt;/font&gt;" style="edgeLabel;html=1;align=center;verticalAlign=middle;resizable=0;points=[];fontFamily=Helvetica;fontSize=11;fontColor=default;labelBackgroundColor=default;" parent="w-bUhG9tgI94XME9KLcf-40" vertex="1" connectable="0">
          <mxGeometry x="0.1502" y="-3" relative="1" as="geometry">
            <mxPoint as="offset" />
          </mxGeometry>
        </mxCell>
        <mxCell id="w-bUhG9tgI94XME9KLcf-38" value="&lt;font style=&quot;font-size: 18px;&quot;&gt;功能操作&lt;/font&gt;" style="rhombus;whiteSpace=wrap;html=1;" parent="1" vertex="1">
          <mxGeometry x="630" y="-660" width="137.5" height="70" as="geometry" />
        </mxCell>
        <mxCell id="w-bUhG9tgI94XME9KLcf-44" value="&lt;span style=&quot;font-size: 18px;&quot;&gt;回收站&lt;/span&gt;" style="rounded=0;whiteSpace=wrap;html=1;" parent="1" vertex="1">
          <mxGeometry x="921.75" y="-500" width="80" height="50" as="geometry" />
        </mxCell>
        <mxCell id="w-bUhG9tgI94XME9KLcf-49" style="edgeStyle=none;rounded=0;orthogonalLoop=1;jettySize=auto;html=1;exitX=0;exitY=0.5;exitDx=0;exitDy=0;strokeColor=default;align=center;verticalAlign=middle;fontFamily=Helvetica;fontSize=11;fontColor=default;labelBackgroundColor=default;endArrow=none;" parent="1" source="w-bUhG9tgI94XME9KLcf-47" target="w-bUhG9tgI94XME9KLcf-44" edge="1">
          <mxGeometry relative="1" as="geometry" />
        </mxCell>
        <mxCell id="W53H7S4lqF-D5ezC9vgU-40" value="&lt;font style=&quot;font-size: 18px;&quot;&gt;M&lt;/font&gt;" style="edgeLabel;html=1;align=center;verticalAlign=middle;resizable=0;points=[];fontFamily=Helvetica;fontSize=11;fontColor=default;labelBackgroundColor=default;" parent="w-bUhG9tgI94XME9KLcf-49" vertex="1" connectable="0">
          <mxGeometry x="0.4388" y="1" relative="1" as="geometry">
            <mxPoint as="offset" />
          </mxGeometry>
        </mxCell>
        <mxCell id="w-bUhG9tgI94XME9KLcf-47" value="&lt;font style=&quot;font-size: 18px;&quot;&gt;删除&lt;/font&gt;" style="rhombus;whiteSpace=wrap;html=1;" parent="1" vertex="1">
          <mxGeometry x="715" y="-500" width="100" height="50" as="geometry" />
        </mxCell>
        <mxCell id="w-bUhG9tgI94XME9KLcf-63" style="edgeStyle=none;rounded=0;orthogonalLoop=1;jettySize=auto;html=1;exitX=0.5;exitY=1;exitDx=0;exitDy=0;strokeColor=default;align=center;verticalAlign=middle;fontFamily=Helvetica;fontSize=11;fontColor=default;labelBackgroundColor=default;endArrow=none;entryX=0.5;entryY=0;entryDx=0;entryDy=0;" parent="1" source="w-bUhG9tgI94XME9KLcf-55" target="w-bUhG9tgI94XME9KLcf-1" edge="1">
          <mxGeometry relative="1" as="geometry">
            <mxPoint x="931.75" y="-790" as="targetPoint" />
          </mxGeometry>
        </mxCell>
        <mxCell id="w-bUhG9tgI94XME9KLcf-55" value="&lt;font style=&quot;font-size: 18px;&quot;&gt;昵称&lt;/font&gt;" style="ellipse;whiteSpace=wrap;html=1;fontFamily=Helvetica;fontSize=11;fontColor=default;labelBackgroundColor=default;" parent="1" vertex="1">
          <mxGeometry x="916.75" y="-905" width="90" height="55" as="geometry" />
        </mxCell>
        <mxCell id="w-bUhG9tgI94XME9KLcf-66" style="edgeStyle=none;rounded=0;orthogonalLoop=1;jettySize=auto;html=1;exitX=0;exitY=1;exitDx=0;exitDy=0;entryX=1;entryY=0;entryDx=0;entryDy=0;strokeColor=default;align=center;verticalAlign=middle;fontFamily=Helvetica;fontSize=11;fontColor=default;labelBackgroundColor=default;endArrow=none;" parent="1" source="w-bUhG9tgI94XME9KLcf-59" target="w-bUhG9tgI94XME9KLcf-1" edge="1">
          <mxGeometry relative="1" as="geometry" />
        </mxCell>
        <mxCell id="w-bUhG9tgI94XME9KLcf-59" value="&lt;font style=&quot;font-size: 18px;&quot;&gt;密码&lt;/font&gt;" style="ellipse;whiteSpace=wrap;html=1;fontFamily=Helvetica;fontSize=11;fontColor=default;labelBackgroundColor=default;" parent="1" vertex="1">
          <mxGeometry x="1020" y="-880" width="90" height="60" as="geometry" />
        </mxCell>
        <mxCell id="w-bUhG9tgI94XME9KLcf-67" style="edgeStyle=none;rounded=0;orthogonalLoop=1;jettySize=auto;html=1;entryX=1;entryY=0.5;entryDx=0;entryDy=0;strokeColor=default;align=center;verticalAlign=middle;fontFamily=Helvetica;fontSize=11;fontColor=default;labelBackgroundColor=default;endArrow=none;exitX=0;exitY=0.5;exitDx=0;exitDy=0;" parent="1" source="w-bUhG9tgI94XME9KLcf-60" target="w-bUhG9tgI94XME9KLcf-1" edge="1">
          <mxGeometry relative="1" as="geometry">
            <mxPoint x="1100" y="-745" as="sourcePoint" />
          </mxGeometry>
        </mxCell>
        <mxCell id="w-bUhG9tgI94XME9KLcf-60" value="&lt;span style=&quot;font-size: 18px;&quot;&gt;头像&lt;/span&gt;" style="ellipse;whiteSpace=wrap;html=1;fontFamily=Helvetica;fontSize=11;fontColor=default;labelBackgroundColor=default;" parent="1" vertex="1">
          <mxGeometry x="1050" y="-800" width="90" height="60" as="geometry" />
        </mxCell>
        <mxCell id="w-bUhG9tgI94XME9KLcf-86" style="edgeStyle=none;rounded=0;orthogonalLoop=1;jettySize=auto;html=1;exitX=0.684;exitY=0.086;exitDx=0;exitDy=0;strokeColor=default;align=center;verticalAlign=middle;fontFamily=Helvetica;fontSize=11;fontColor=default;labelBackgroundColor=default;endArrow=none;entryX=0;entryY=0;entryDx=0;entryDy=0;exitPerimeter=0;" parent="1" source="w-bUhG9tgI94XME9KLcf-71" target="w-bUhG9tgI94XME9KLcf-5" edge="1">
          <mxGeometry relative="1" as="geometry">
            <mxPoint x="375" y="-290" as="targetPoint" />
          </mxGeometry>
        </mxCell>
        <mxCell id="w-bUhG9tgI94XME9KLcf-71" value="&lt;span style=&quot;font-size: 18px;&quot;&gt;上传时间&lt;/span&gt;" style="ellipse;whiteSpace=wrap;html=1;fontFamily=Helvetica;fontSize=11;fontColor=default;labelBackgroundColor=default;" parent="1" vertex="1">
          <mxGeometry x="395" y="-590" width="90" height="60" as="geometry" />
        </mxCell>
        <mxCell id="w-bUhG9tgI94XME9KLcf-82" value="" style="edgeStyle=none;rounded=0;orthogonalLoop=1;jettySize=auto;html=1;strokeColor=default;align=center;verticalAlign=middle;fontFamily=Helvetica;fontSize=11;fontColor=default;labelBackgroundColor=default;endArrow=none;entryX=0;entryY=1;entryDx=0;entryDy=0;" parent="1" source="w-bUhG9tgI94XME9KLcf-80" target="w-bUhG9tgI94XME9KLcf-5" edge="1">
          <mxGeometry relative="1" as="geometry" />
        </mxCell>
        <mxCell id="w-bUhG9tgI94XME9KLcf-80" value="&lt;font style=&quot;font-size: 18px;&quot;&gt;文件名&lt;/font&gt;" style="ellipse;whiteSpace=wrap;html=1;fontFamily=Helvetica;fontSize=11;fontColor=default;labelBackgroundColor=default;" parent="1" vertex="1">
          <mxGeometry x="340" y="-480" width="90" height="60" as="geometry" />
        </mxCell>
        <mxCell id="w-bUhG9tgI94XME9KLcf-83" style="edgeStyle=none;rounded=0;orthogonalLoop=1;jettySize=auto;html=1;exitX=1;exitY=0.5;exitDx=0;exitDy=0;strokeColor=default;align=center;verticalAlign=middle;fontFamily=Helvetica;fontSize=11;fontColor=default;labelBackgroundColor=default;endArrow=none;entryX=0;entryY=0;entryDx=0;entryDy=0;" parent="1" source="w-bUhG9tgI94XME9KLcf-81" target="w-bUhG9tgI94XME9KLcf-5" edge="1">
          <mxGeometry relative="1" as="geometry">
            <mxPoint x="490" y="-500" as="targetPoint" />
          </mxGeometry>
        </mxCell>
        <mxCell id="w-bUhG9tgI94XME9KLcf-81" value="&lt;font style=&quot;font-size: 18px;&quot;&gt;大小&lt;/font&gt;" style="ellipse;whiteSpace=wrap;html=1;fontFamily=Helvetica;fontSize=11;fontColor=default;labelBackgroundColor=default;" parent="1" vertex="1">
          <mxGeometry x="320" y="-545" width="90" height="60" as="geometry" />
        </mxCell>
        <mxCell id="W53H7S4lqF-D5ezC9vgU-50" value="" style="edgeStyle=none;rounded=0;orthogonalLoop=1;jettySize=auto;html=1;strokeColor=default;align=center;verticalAlign=middle;fontFamily=Helvetica;fontSize=11;fontColor=default;labelBackgroundColor=default;endArrow=none;" parent="1" source="w-bUhG9tgI94XME9KLcf-90" target="w-bUhG9tgI94XME9KLcf-4" edge="1">
          <mxGeometry relative="1" as="geometry" />
        </mxCell>
        <mxCell id="w-bUhG9tgI94XME9KLcf-90" value="&lt;span style=&quot;font-size: 18px;&quot;&gt;文件夹名&lt;/span&gt;" style="ellipse;whiteSpace=wrap;html=1;fontFamily=Helvetica;fontSize=11;fontColor=default;labelBackgroundColor=default;" parent="1" vertex="1">
          <mxGeometry x="1295.25" y="-400" width="90" height="70" as="geometry" />
        </mxCell>
        <mxCell id="w-bUhG9tgI94XME9KLcf-126" value="&lt;span style=&quot;font-size: 18px;&quot;&gt;创建时间&lt;/span&gt;" style="ellipse;whiteSpace=wrap;html=1;fontFamily=Helvetica;fontSize=11;fontColor=default;labelBackgroundColor=default;" parent="1" vertex="1">
          <mxGeometry x="1200" y="-400" width="90" height="70" as="geometry" />
        </mxCell>
        <mxCell id="W53H7S4lqF-D5ezC9vgU-2" style="edgeStyle=orthogonalEdgeStyle;rounded=0;orthogonalLoop=1;jettySize=auto;html=1;exitX=0.5;exitY=1;exitDx=0;exitDy=0;" parent="1" source="w-bUhG9tgI94XME9KLcf-5" target="w-bUhG9tgI94XME9KLcf-5" edge="1">
          <mxGeometry relative="1" as="geometry" />
        </mxCell>
        <mxCell id="W53H7S4lqF-D5ezC9vgU-7" style="edgeStyle=none;rounded=0;orthogonalLoop=1;jettySize=auto;html=1;exitX=0.5;exitY=1;exitDx=0;exitDy=0;entryX=0.5;entryY=0;entryDx=0;entryDy=0;strokeColor=default;align=center;verticalAlign=middle;fontFamily=Helvetica;fontSize=11;fontColor=default;labelBackgroundColor=default;endArrow=none;" parent="1" source="W53H7S4lqF-D5ezC9vgU-4" target="w-bUhG9tgI94XME9KLcf-47" edge="1">
          <mxGeometry relative="1" as="geometry" />
        </mxCell>
        <mxCell id="W53H7S4lqF-D5ezC9vgU-4" value="&lt;font style=&quot;font-size: 18px;&quot;&gt;删除标志&lt;/font&gt;" style="ellipse;whiteSpace=wrap;html=1;fontFamily=Helvetica;fontSize=11;fontColor=default;labelBackgroundColor=default;" parent="1" vertex="1">
          <mxGeometry x="720" y="-580" width="90" height="60" as="geometry" />
        </mxCell>
        <mxCell id="W53H7S4lqF-D5ezC9vgU-10" style="edgeStyle=none;rounded=0;orthogonalLoop=1;jettySize=auto;html=1;exitX=1;exitY=0.5;exitDx=0;exitDy=0;entryX=0;entryY=0.5;entryDx=0;entryDy=0;strokeColor=default;align=center;verticalAlign=middle;fontFamily=Helvetica;fontSize=11;fontColor=default;labelBackgroundColor=default;endArrow=none;" parent="1" source="W53H7S4lqF-D5ezC9vgU-8" target="W53H7S4lqF-D5ezC9vgU-9" edge="1">
          <mxGeometry relative="1" as="geometry" />
        </mxCell>
        <mxCell id="W53H7S4lqF-D5ezC9vgU-13" value="&lt;font style=&quot;font-size: 18px;&quot;&gt;1&lt;/font&gt;" style="edgeLabel;html=1;align=center;verticalAlign=middle;resizable=0;points=[];fontFamily=Helvetica;fontSize=11;fontColor=default;labelBackgroundColor=default;" parent="W53H7S4lqF-D5ezC9vgU-10" vertex="1" connectable="0">
          <mxGeometry x="-0.2903" y="2" relative="1" as="geometry">
            <mxPoint as="offset" />
          </mxGeometry>
        </mxCell>
        <mxCell id="W53H7S4lqF-D5ezC9vgU-17" style="edgeStyle=none;rounded=0;orthogonalLoop=1;jettySize=auto;html=1;exitX=0;exitY=0.5;exitDx=0;exitDy=0;entryX=1;entryY=1;entryDx=0;entryDy=0;strokeColor=default;align=center;verticalAlign=middle;fontFamily=Helvetica;fontSize=11;fontColor=default;labelBackgroundColor=default;endArrow=none;" parent="1" source="W53H7S4lqF-D5ezC9vgU-8" target="W53H7S4lqF-D5ezC9vgU-14" edge="1">
          <mxGeometry relative="1" as="geometry" />
        </mxCell>
        <mxCell id="C1nQSUP3_iVQXWu07cKW-11" style="edgeStyle=none;rounded=0;orthogonalLoop=1;jettySize=auto;html=1;exitX=0.5;exitY=0;exitDx=0;exitDy=0;entryX=0.5;entryY=1;entryDx=0;entryDy=0;strokeColor=default;align=center;verticalAlign=middle;fontFamily=Helvetica;fontSize=11;fontColor=default;labelBackgroundColor=default;endArrow=none;" edge="1" parent="1" source="W53H7S4lqF-D5ezC9vgU-8" target="C1nQSUP3_iVQXWu07cKW-10">
          <mxGeometry relative="1" as="geometry" />
        </mxCell>
        <mxCell id="W53H7S4lqF-D5ezC9vgU-8" value="&lt;font style=&quot;font-size: 18px;&quot;&gt;等级&lt;/font&gt;" style="rounded=0;whiteSpace=wrap;html=1;" parent="1" vertex="1">
          <mxGeometry x="550" y="-800" width="80" height="60" as="geometry" />
        </mxCell>
        <mxCell id="W53H7S4lqF-D5ezC9vgU-11" style="edgeStyle=none;rounded=0;orthogonalLoop=1;jettySize=auto;html=1;exitX=1;exitY=0.5;exitDx=0;exitDy=0;strokeColor=default;align=center;verticalAlign=middle;fontFamily=Helvetica;fontSize=11;fontColor=default;labelBackgroundColor=default;endArrow=none;" parent="1" source="W53H7S4lqF-D5ezC9vgU-9" edge="1">
          <mxGeometry relative="1" as="geometry">
            <mxPoint x="920" y="-770" as="targetPoint" />
            <Array as="points" />
          </mxGeometry>
        </mxCell>
        <mxCell id="W53H7S4lqF-D5ezC9vgU-12" value="&lt;font style=&quot;font-size: 18px;&quot;&gt;N&lt;/font&gt;" style="edgeLabel;html=1;align=center;verticalAlign=middle;resizable=0;points=[];fontFamily=Helvetica;fontSize=11;fontColor=default;labelBackgroundColor=default;" parent="W53H7S4lqF-D5ezC9vgU-11" vertex="1" connectable="0">
          <mxGeometry x="-0.1446" y="1" relative="1" as="geometry">
            <mxPoint x="1" as="offset" />
          </mxGeometry>
        </mxCell>
        <mxCell id="W53H7S4lqF-D5ezC9vgU-9" value="&lt;font style=&quot;font-size: 18px;&quot;&gt;限制&lt;/font&gt;" style="rhombus;whiteSpace=wrap;html=1;" parent="1" vertex="1">
          <mxGeometry x="700" y="-805" width="137.5" height="70" as="geometry" />
        </mxCell>
        <mxCell id="W53H7S4lqF-D5ezC9vgU-14" value="&lt;font style=&quot;font-size: 18px;&quot;&gt;空间容量&lt;/font&gt;" style="ellipse;whiteSpace=wrap;html=1;fontFamily=Helvetica;fontSize=11;fontColor=default;labelBackgroundColor=default;" parent="1" vertex="1">
          <mxGeometry x="400" y="-850" width="85" height="70" as="geometry" />
        </mxCell>
        <mxCell id="W53H7S4lqF-D5ezC9vgU-18" style="edgeStyle=none;rounded=0;orthogonalLoop=1;jettySize=auto;html=1;exitX=1;exitY=0.5;exitDx=0;exitDy=0;entryX=0;entryY=0.75;entryDx=0;entryDy=0;strokeColor=default;align=center;verticalAlign=middle;fontFamily=Helvetica;fontSize=11;fontColor=default;labelBackgroundColor=default;endArrow=none;" parent="1" source="W53H7S4lqF-D5ezC9vgU-16" target="W53H7S4lqF-D5ezC9vgU-8" edge="1">
          <mxGeometry relative="1" as="geometry" />
        </mxCell>
        <mxCell id="W53H7S4lqF-D5ezC9vgU-16" value="&lt;span style=&quot;font-size: 18px;&quot;&gt;上传限制&lt;/span&gt;" style="ellipse;whiteSpace=wrap;html=1;fontFamily=Helvetica;fontSize=11;fontColor=default;labelBackgroundColor=default;" parent="1" vertex="1">
          <mxGeometry x="395" y="-755" width="90" height="70" as="geometry" />
        </mxCell>
        <mxCell id="W53H7S4lqF-D5ezC9vgU-30" style="edgeStyle=none;rounded=0;orthogonalLoop=1;jettySize=auto;html=1;strokeColor=default;align=center;verticalAlign=middle;fontFamily=Helvetica;fontSize=11;fontColor=default;labelBackgroundColor=default;endArrow=none;exitX=0.5;exitY=0;exitDx=0;exitDy=0;" parent="1" source="W53H7S4lqF-D5ezC9vgU-29" edge="1">
          <mxGeometry relative="1" as="geometry">
            <mxPoint x="463" y="-411" as="sourcePoint" />
            <mxPoint x="535" y="-500" as="targetPoint" />
          </mxGeometry>
        </mxCell>
        <mxCell id="W53H7S4lqF-D5ezC9vgU-29" value="&lt;span style=&quot;font-size: 18px;&quot;&gt;文件路径&lt;/span&gt;" style="ellipse;whiteSpace=wrap;html=1;fontFamily=Helvetica;fontSize=11;fontColor=default;labelBackgroundColor=default;" parent="1" vertex="1">
          <mxGeometry x="490" y="-605" width="90" height="60" as="geometry" />
        </mxCell>
        <mxCell id="W53H7S4lqF-D5ezC9vgU-34" value="&lt;font style=&quot;font-size: 18px;&quot;&gt;收纳&lt;/font&gt;" style="rhombus;whiteSpace=wrap;html=1;rotation=0;" parent="1" vertex="1">
          <mxGeometry x="1275" y="-610" width="130" height="70" as="geometry" />
        </mxCell>
        <mxCell id="W53H7S4lqF-D5ezC9vgU-35" style="edgeStyle=none;rounded=0;orthogonalLoop=1;jettySize=auto;html=1;exitX=0.25;exitY=0;exitDx=0;exitDy=0;strokeColor=default;align=center;verticalAlign=middle;fontFamily=Helvetica;fontSize=11;fontColor=default;labelBackgroundColor=default;endArrow=none;entryX=0.389;entryY=0.887;entryDx=0;entryDy=0;entryPerimeter=0;" parent="1" source="w-bUhG9tgI94XME9KLcf-4" target="W53H7S4lqF-D5ezC9vgU-34" edge="1">
          <mxGeometry relative="1" as="geometry">
            <mxPoint x="1252" y="-580" as="targetPoint" />
          </mxGeometry>
        </mxCell>
        <mxCell id="W53H7S4lqF-D5ezC9vgU-39" value="&lt;font style=&quot;font-size: 18px;&quot;&gt;1&lt;/font&gt;" style="edgeLabel;html=1;align=center;verticalAlign=middle;resizable=0;points=[];fontFamily=Helvetica;fontSize=11;fontColor=default;labelBackgroundColor=default;" parent="W53H7S4lqF-D5ezC9vgU-35" vertex="1" connectable="0">
          <mxGeometry x="0.1306" y="-1" relative="1" as="geometry">
            <mxPoint y="-1" as="offset" />
          </mxGeometry>
        </mxCell>
        <mxCell id="W53H7S4lqF-D5ezC9vgU-37" style="edgeStyle=none;rounded=0;orthogonalLoop=1;jettySize=auto;html=1;entryX=0.622;entryY=0.873;entryDx=0;entryDy=0;entryPerimeter=0;strokeColor=default;align=center;verticalAlign=middle;fontFamily=Helvetica;fontSize=11;fontColor=default;labelBackgroundColor=default;endArrow=none;exitX=0.75;exitY=0;exitDx=0;exitDy=0;" parent="1" source="w-bUhG9tgI94XME9KLcf-4" target="W53H7S4lqF-D5ezC9vgU-34" edge="1">
          <mxGeometry relative="1" as="geometry">
            <mxPoint x="1281" y="-480" as="sourcePoint" />
          </mxGeometry>
        </mxCell>
        <mxCell id="W53H7S4lqF-D5ezC9vgU-38" value="&lt;font style=&quot;font-size: 18px;&quot;&gt;N&lt;/font&gt;" style="edgeLabel;html=1;align=center;verticalAlign=middle;resizable=0;points=[];fontFamily=Helvetica;fontSize=11;fontColor=default;labelBackgroundColor=default;" parent="W53H7S4lqF-D5ezC9vgU-37" vertex="1" connectable="0">
          <mxGeometry x="0.1197" y="-1" relative="1" as="geometry">
            <mxPoint y="1" as="offset" />
          </mxGeometry>
        </mxCell>
        <mxCell id="W53H7S4lqF-D5ezC9vgU-46" style="edgeStyle=none;rounded=0;orthogonalLoop=1;jettySize=auto;html=1;exitX=0;exitY=0.5;exitDx=0;exitDy=0;entryX=1;entryY=0.5;entryDx=0;entryDy=0;strokeColor=default;align=center;verticalAlign=middle;fontFamily=Helvetica;fontSize=11;fontColor=default;labelBackgroundColor=default;endArrow=none;" parent="1" source="W53H7S4lqF-D5ezC9vgU-43" target="w-bUhG9tgI94XME9KLcf-44" edge="1">
          <mxGeometry relative="1" as="geometry" />
        </mxCell>
        <mxCell id="W53H7S4lqF-D5ezC9vgU-49" value="&lt;font style=&quot;font-size: 18px;&quot;&gt;M&lt;/font&gt;" style="edgeLabel;html=1;align=center;verticalAlign=middle;resizable=0;points=[];fontFamily=Helvetica;fontSize=11;fontColor=default;labelBackgroundColor=default;" parent="W53H7S4lqF-D5ezC9vgU-46" vertex="1" connectable="0">
          <mxGeometry x="-0.1324" y="1" relative="1" as="geometry">
            <mxPoint x="1" as="offset" />
          </mxGeometry>
        </mxCell>
        <mxCell id="W53H7S4lqF-D5ezC9vgU-47" style="edgeStyle=none;rounded=0;orthogonalLoop=1;jettySize=auto;html=1;exitX=1;exitY=0.5;exitDx=0;exitDy=0;entryX=0;entryY=0.5;entryDx=0;entryDy=0;strokeColor=default;align=center;verticalAlign=middle;fontFamily=Helvetica;fontSize=11;fontColor=default;labelBackgroundColor=default;endArrow=none;" parent="1" source="W53H7S4lqF-D5ezC9vgU-43" target="w-bUhG9tgI94XME9KLcf-4" edge="1">
          <mxGeometry relative="1" as="geometry" />
        </mxCell>
        <mxCell id="W53H7S4lqF-D5ezC9vgU-48" value="&lt;font style=&quot;font-size: 18px;&quot;&gt;N&lt;/font&gt;" style="edgeLabel;html=1;align=center;verticalAlign=middle;resizable=0;points=[];fontFamily=Helvetica;fontSize=11;fontColor=default;labelBackgroundColor=default;" parent="W53H7S4lqF-D5ezC9vgU-47" vertex="1" connectable="0">
          <mxGeometry x="-0.1044" relative="1" as="geometry">
            <mxPoint x="1" as="offset" />
          </mxGeometry>
        </mxCell>
        <mxCell id="W53H7S4lqF-D5ezC9vgU-43" value="&lt;font style=&quot;font-size: 18px;&quot;&gt;删除&lt;/font&gt;" style="rhombus;whiteSpace=wrap;html=1;" parent="1" vertex="1">
          <mxGeometry x="1080" y="-500" width="100" height="50" as="geometry" />
        </mxCell>
        <mxCell id="W53H7S4lqF-D5ezC9vgU-44" style="edgeStyle=none;rounded=0;orthogonalLoop=1;jettySize=auto;html=1;exitX=0.5;exitY=1;exitDx=0;exitDy=0;entryX=0.5;entryY=0;entryDx=0;entryDy=0;strokeColor=default;align=center;verticalAlign=middle;fontFamily=Helvetica;fontSize=11;fontColor=default;labelBackgroundColor=default;endArrow=none;" parent="1" source="W53H7S4lqF-D5ezC9vgU-45" target="W53H7S4lqF-D5ezC9vgU-43" edge="1">
          <mxGeometry relative="1" as="geometry" />
        </mxCell>
        <mxCell id="W53H7S4lqF-D5ezC9vgU-45" value="&lt;font style=&quot;font-size: 18px;&quot;&gt;删除标志&lt;/font&gt;" style="ellipse;whiteSpace=wrap;html=1;fontFamily=Helvetica;fontSize=11;fontColor=default;labelBackgroundColor=default;" parent="1" vertex="1">
          <mxGeometry x="1085" y="-580" width="90" height="60" as="geometry" />
        </mxCell>
        <mxCell id="W53H7S4lqF-D5ezC9vgU-51" value="&lt;span style=&quot;font-size: 18px;&quot;&gt;密码&lt;/span&gt;" style="ellipse;whiteSpace=wrap;html=1;fontFamily=Helvetica;fontSize=11;fontColor=default;labelBackgroundColor=default;" parent="1" vertex="1">
          <mxGeometry x="1400" y="-400" width="90" height="70" as="geometry" />
        </mxCell>
        <mxCell id="C1nQSUP3_iVQXWu07cKW-1" value="&lt;span style=&quot;font-size: 18px;&quot;&gt;使用空间&lt;/span&gt;" style="ellipse;whiteSpace=wrap;html=1;fontFamily=Helvetica;fontSize=11;fontColor=default;labelBackgroundColor=default;" vertex="1" parent="1">
          <mxGeometry x="826.75" y="-880" width="90" height="55" as="geometry" />
        </mxCell>
        <mxCell id="C1nQSUP3_iVQXWu07cKW-5" value="&lt;font style=&quot;font-size: 18px;&quot;&gt;缩略图&lt;/font&gt;" style="rounded=0;whiteSpace=wrap;html=1;" vertex="1" parent="1">
          <mxGeometry x="495" y="-280" width="80" height="50" as="geometry" />
        </mxCell>
        <mxCell id="C1nQSUP3_iVQXWu07cKW-12" value="" style="edgeStyle=none;rounded=0;orthogonalLoop=1;jettySize=auto;html=1;strokeColor=default;align=center;verticalAlign=middle;fontFamily=Helvetica;fontSize=11;fontColor=default;labelBackgroundColor=default;endArrow=none;" edge="1" parent="1" source="C1nQSUP3_iVQXWu07cKW-7" target="w-bUhG9tgI94XME9KLcf-5">
          <mxGeometry relative="1" as="geometry" />
        </mxCell>
        <mxCell id="C1nQSUP3_iVQXWu07cKW-14" value="&lt;font style=&quot;font-size: 18px;&quot;&gt;N&lt;/font&gt;" style="edgeLabel;html=1;align=center;verticalAlign=middle;resizable=0;points=[];fontFamily=Helvetica;fontSize=11;fontColor=default;labelBackgroundColor=default;" vertex="1" connectable="0" parent="C1nQSUP3_iVQXWu07cKW-12">
          <mxGeometry x="0.1253" y="2" relative="1" as="geometry">
            <mxPoint as="offset" />
          </mxGeometry>
        </mxCell>
        <mxCell id="C1nQSUP3_iVQXWu07cKW-13" value="" style="edgeStyle=none;rounded=0;orthogonalLoop=1;jettySize=auto;html=1;strokeColor=default;align=center;verticalAlign=middle;fontFamily=Helvetica;fontSize=11;fontColor=default;labelBackgroundColor=default;endArrow=none;" edge="1" parent="1" source="C1nQSUP3_iVQXWu07cKW-7" target="C1nQSUP3_iVQXWu07cKW-5">
          <mxGeometry relative="1" as="geometry" />
        </mxCell>
        <mxCell id="C1nQSUP3_iVQXWu07cKW-15" value="&lt;font style=&quot;font-size: 18px;&quot;&gt;1&lt;/font&gt;" style="edgeLabel;html=1;align=center;verticalAlign=middle;resizable=0;points=[];fontFamily=Helvetica;fontSize=11;fontColor=default;labelBackgroundColor=default;" vertex="1" connectable="0" parent="C1nQSUP3_iVQXWu07cKW-13">
          <mxGeometry x="-0.1945" relative="1" as="geometry">
            <mxPoint as="offset" />
          </mxGeometry>
        </mxCell>
        <mxCell id="C1nQSUP3_iVQXWu07cKW-7" value="&lt;font style=&quot;font-size: 18px;&quot;&gt;显示格式&lt;/font&gt;" style="rhombus;whiteSpace=wrap;html=1;" vertex="1" parent="1">
          <mxGeometry x="477.5" y="-400" width="115" height="70" as="geometry" />
        </mxCell>
        <mxCell id="C1nQSUP3_iVQXWu07cKW-9" style="edgeStyle=none;rounded=0;orthogonalLoop=1;jettySize=auto;html=1;exitX=0.5;exitY=1;exitDx=0;exitDy=0;entryX=0.5;entryY=0;entryDx=0;entryDy=0;strokeColor=default;align=center;verticalAlign=middle;fontFamily=Helvetica;fontSize=11;fontColor=default;labelBackgroundColor=default;endArrow=none;" edge="1" parent="1" source="C1nQSUP3_iVQXWu07cKW-8" target="w-bUhG9tgI94XME9KLcf-44">
          <mxGeometry relative="1" as="geometry" />
        </mxCell>
        <mxCell id="C1nQSUP3_iVQXWu07cKW-8" value="&lt;font style=&quot;font-size: 18px;&quot;&gt;文件放入时间&lt;/font&gt;" style="ellipse;whiteSpace=wrap;html=1;fontFamily=Helvetica;fontSize=11;fontColor=default;labelBackgroundColor=default;" vertex="1" parent="1">
          <mxGeometry x="900.13" y="-635" width="123.25" height="95" as="geometry" />
        </mxCell>
        <mxCell id="C1nQSUP3_iVQXWu07cKW-10" value="&lt;span style=&quot;font-size: 18px;&quot;&gt;回收站文件保存时间&lt;/span&gt;" style="ellipse;whiteSpace=wrap;html=1;fontFamily=Helvetica;fontSize=11;fontColor=default;labelBackgroundColor=default;" vertex="1" parent="1">
          <mxGeometry x="502.5" y="-930" width="175" height="100" as="geometry" />
        </mxCell>
        <mxCell id="C1nQSUP3_iVQXWu07cKW-20" value="" style="edgeStyle=none;rounded=0;orthogonalLoop=1;jettySize=auto;html=1;strokeColor=default;align=center;verticalAlign=middle;fontFamily=Helvetica;fontSize=11;fontColor=default;labelBackgroundColor=default;endArrow=none;" edge="1" parent="1" source="C1nQSUP3_iVQXWu07cKW-16" target="C1nQSUP3_iVQXWu07cKW-5">
          <mxGeometry relative="1" as="geometry" />
        </mxCell>
        <mxCell id="C1nQSUP3_iVQXWu07cKW-16" value="&lt;span style=&quot;font-size: 18px;&quot;&gt;文件格式&lt;/span&gt;" style="ellipse;whiteSpace=wrap;html=1;fontFamily=Helvetica;fontSize=11;fontColor=default;labelBackgroundColor=default;" vertex="1" parent="1">
          <mxGeometry x="360" y="-285" width="90" height="65" as="geometry" />
        </mxCell>
        <mxCell id="C1nQSUP3_iVQXWu07cKW-19" value="" style="edgeStyle=none;rounded=0;orthogonalLoop=1;jettySize=auto;html=1;strokeColor=default;align=center;verticalAlign=middle;fontFamily=Helvetica;fontSize=11;fontColor=default;labelBackgroundColor=default;endArrow=none;" edge="1" parent="1" source="C1nQSUP3_iVQXWu07cKW-18" target="C1nQSUP3_iVQXWu07cKW-5">
          <mxGeometry relative="1" as="geometry" />
        </mxCell>
        <mxCell id="C1nQSUP3_iVQXWu07cKW-18" value="&lt;span style=&quot;font-size: 18px;&quot;&gt;缩略图路径&lt;/span&gt;" style="ellipse;whiteSpace=wrap;html=1;fontFamily=Helvetica;fontSize=11;fontColor=default;labelBackgroundColor=default;" vertex="1" parent="1">
          <mxGeometry x="620" y="-292.5" width="107.5" height="75" as="geometry" />
        </mxCell>
      </root>
    </mxGraphModel>
  </diagram>
</mxfile>
